<svg width="18" height="18" viewBox="0 0 18 18" fill="none" xmlns="http://www.w3.org/2000/svg">
<path d="M16.92 9.18771C16.92 8.60271 16.8675 8.04021 16.77 7.50021H9V10.6952H13.44C13.245 11.7227 12.66 12.5927 11.7825 13.1777V15.2552H14.46C16.02 13.8152 16.92 11.7002 16.92 9.18771Z" fill="#155DFC"/>
<path d="M8.99977 17.2501C11.2273 17.2501 13.0948 16.5151 14.4598 15.2551L11.7823 13.1776C11.0473 13.6726 10.1098 13.9726 8.99977 13.9726C6.85477 13.9726 5.03227 12.5251 4.37977 10.5751H1.63477V12.7051C2.99227 15.3976 5.77477 17.2501 8.99977 17.2501Z" fill="#155DFC"/>
<path d="M4.38 10.5673C4.215 10.0723 4.1175 9.54732 4.1175 8.99982C4.1175 8.45232 4.215 7.92732 4.38 7.43232V5.30232H1.635C1.0725 6.41232 0.75 7.66482 0.75 8.99982C0.75 10.3348 1.0725 11.5873 1.635 12.6973L3.7725 11.0323L4.38 10.5673Z" fill="#155DFC"/>
<path d="M8.99977 4.03521C10.2148 4.03521 11.2948 4.45521 12.1573 5.26521L14.5198 2.90271C13.0873 1.56771 11.2273 0.750214 8.99977 0.750214C5.77477 0.750214 2.99227 2.60271 1.63477 5.30271L4.37977 7.43271C5.03227 5.48271 6.85477 4.03521 8.99977 4.03521Z" fill="#155DFC"/>
</svg>
